<svg xmlns="http://www.w3.org/2000/svg" viewBox="0 0 32 32"><path d="M29.95,20.68l-4-12A1,1,0,0,0,25,8H17V3a1,1,0,0,0-2,0V8H7a1,1,0,0,0-.95.68l-4,12a1,1,0,0,0,0,.15A1,1,0,0,0,2,21v8a1,1,0,0,0,1,1H29a1,1,0,0,0,1-1V21a.94.94,0,0,0,0-.16A.94.94,0,0,0,29.95,20.68ZM7.72,10H15v7l-2.4-1.8a1,1,0,1,0-1.2,1.6l4,3,.11.06.07,0,.06,0A1,1,0,0,0,16,20h0a1,1,0,0,0,.35-.07l.06,0,.07,0,.11-.06,4-3a1,1,0,0,0-1.2-1.6L17,17V10h7.28l3.33,10H21a1,1,0,0,0-1,1v3H12V21a1,1,0,0,0-1-1H4.39ZM28,28H4V22h6v3a1,1,0,0,0,1,1H21a1,1,0,0,0,1-1V22h6Z" data-name="Layer 2"/></svg>