<svg xmlns="http://www.w3.org/2000/svg" width="32" height="32"><path style="line-height:normal;text-indent:0;text-align:start;text-decoration-line:none;text-decoration-style:solid;text-decoration-color:#000;text-transform:none;block-progression:tb;isolation:auto;mix-blend-mode:normal" fill="#25b39e" d="M8.166 1033.478a.827.827 0 0 0-.818.819v1.463a7.503 7.503 0 0 0-1.487.611l-1.033-1.031a.828.828 0 0 0-1.158 0l-1.807 1.807a.83.83 0 0 0-.002 1.16l1.035 1.033a7.498 7.498 0 0 0-.615 1.482H.821a.83.83 0 0 0-.821.82v2.555c0 .446.375.82.82.82h1.461c.151.517.356 1.013.614 1.485l-1.032 1.031a.83.83 0 0 0 0 1.16l1.807 1.807a.828.828 0 0 0 1.158 0l1.035-1.033c.473.258.968.463 1.485.615v1.461c0 .445.373.818.818.818h2.557a.827.827 0 0 0 .818-.818v-1.463a7.508 7.508 0 0 0 1.486-.611l1.032 1.031a.83.83 0 0 0 1.16 0l1.806-1.807a.831.831 0 0 0 0-1.16l-1.033-1.033c.258-.472.464-.967.615-1.482h1.461a.83.83 0 0 0 .82-.82v-2.555a.83.83 0 0 0-.82-.82h-1.463a7.5 7.5 0 0 0-.61-1.485l1.03-1.031a.5.5 0 0 0 .002 0 .829.829 0 0 0-.002-1.159l-1.806-1.806a.83.83 0 0 0-1.16 0l-1.034 1.033a7.5 7.5 0 0 0-1.484-.615v-1.461a.827.827 0 0 0-.818-.819H8.166zm.182 1h2.193v1.606a.5.5 0 0 0 .387.488 6.518 6.518 0 0 1 1.955.81.5.5 0 0 0 .619-.071l1.137-1.137 1.552 1.553-1.134 1.135a.5.5 0 0 0-.073.617 6.52 6.52 0 0 1 .809 1.957.5.5 0 0 0 .486.387h1.61v2.195H16.28a.5.5 0 0 0-.486.385 6.533 6.533 0 0 1-.813 1.957.5.5 0 0 0 .073.617l1.136 1.137-1.552 1.552-1.135-1.134a.5.5 0 0 0-.617-.072 6.532 6.532 0 0 1-1.96.808.5.5 0 0 0-.386.486v1.608H8.348v-1.606a.5.5 0 0 0-.387-.488 6.532 6.532 0 0 1-1.957-.81.5.5 0 0 0-.617.07l-1.139 1.138-1.553-1.552 1.137-1.135a.5.5 0 0 0 .072-.617 6.52 6.52 0 0 1-.808-1.957.5.5 0 0 0-.487-.387H1v-2.195h1.607a.5.5 0 0 0 .487-.385 6.534 6.534 0 0 1 .812-1.957.5.5 0 0 0-.072-.617l-1.139-1.137 1.555-1.553 1.135 1.135a.5.5 0 0 0 .617.072 6.53 6.53 0 0 1 1.959-.809.5.5 0 0 0 .387-.486v-1.608zm1.095 3.471a4.978 4.978 0 0 0-4.97 4.97c0 2.74 2.23 4.972 4.97 4.972a4.98 4.98 0 0 0 4.973-4.971 4.98 4.98 0 0 0-4.973-4.97zm0 1c2.2 0 3.973 1.772 3.973 3.97 0 2.2-1.773 3.972-3.973 3.972s-3.97-1.772-3.97-3.971a3.963 3.963 0 0 1 3.97-3.97zm14.207-7.564-1.64.441a.5.5 0 0 0-.01 0 .5.5 0 0 0-.002 0c-.247.067-.265.344-.332.578l-.031-.02a.5.5 0 0 0 .011.054c-.024.108-.18.15-.15.262l.225.838c-.24.154-.465.326-.676.517l-.746-.43a.722.722 0 0 0-.98.259l-.854 1.476a.721.721 0 0 0 .26.977.5.5 0 0 0 .002 0l.751.433c-.06.279-.097.56-.11.844l-.84.225c-.373.1-.605.5-.505.873l.442 1.65c.1.374.502.604.875.504l.838-.225c.154.24.326.465.517.676l-.433.748a.721.721 0 0 0 .261.977l1.479.855c.335.194.78.074.975-.26l.433-.751c.279.06.56.097.844.11l.224.839c.1.373.5.605.874.506a.5.5 0 0 0 .002 0l1.648-.444a.5.5 0 0 0 .002 0 .723.723 0 0 0 .504-.873l-.227-.838a5.17 5.17 0 0 0 .678-.517l.744.43c.337.2.789.074.98-.258l.854-1.477a.72.72 0 0 0-.26-.977l-.752-.433c.06-.278.098-.56.112-.844l.838-.224a.5.5 0 0 0 .002 0 .724.724 0 0 0 .502-.875l-.442-1.649a.723.723 0 0 0-.873-.504l-.84.225a5.178 5.178 0 0 0-.515-.676l.433-.752a.724.724 0 0 0-.261-.975l-1.473-.847a.724.724 0 0 0-.984.26l-.432.748a5.245 5.245 0 0 0-.844-.112l-.224-.838a.723.723 0 0 0-.874-.505zm-.02 1.04.237.878a.5.5 0 0 0 .498.37 4.2 4.2 0 0 1 1.35.179.5.5 0 0 0 .578-.229l.455-.787.984.568-.453.786a.5.5 0 0 0 .09.613c.333.313.613.679.828 1.082a.5.5 0 0 0 .57.248l.88-.236.292 1.095-.877.237a.5.5 0 0 0-.37.498c.014.456-.046.912-.178 1.35a.5.5 0 0 0 .228.577l.787.455-.568.983-.785-.453a.5.5 0 0 0-.614.09 4.197 4.197 0 0 1-1.082.828.5.5 0 0 0-.248.57l.235.88-1.096.292-.234-.877a.5.5 0 0 0-.5-.371 4.2 4.2 0 0 1-1.35-.178.5.5 0 0 0-.578.229l-.455.787-.984-.568.455-.786a.5.5 0 0 0-.092-.613 4.192 4.192 0 0 1-.826-1.082.5.5 0 0 0-.57-.248l-.88.236-.293-1.095.877-.237a.5.5 0 0 0 .37-.498 4.196 4.196 0 0 1 .18-1.35.5.5 0 0 0-.23-.578l-.788-.455.57-.982.783.453a.5.5 0 0 0 .615-.09 4.2 4.2 0 0 1 1.082-.828.5.5 0 0 0 .248-.57l-.236-.88 1.096-.292zm1.349 1.983a3.469 3.469 0 0 0-1.381.084 3.497 3.497 0 0 0-2.467 4.274 3.497 3.497 0 0 0 4.273 2.466 3.497 3.497 0 0 0 2.467-4.273 3.497 3.497 0 0 0-2.892-2.55zm-1.122 1.051a2.482 2.482 0 0 1 3.05 1.76 2.481 2.481 0 0 1-1.762 3.047 2.48 2.48 0 0 1-3.047-1.76 2.48 2.48 0 0 1 1.76-3.047zm-9.386-15.098c-.4 0-.735.336-.735.735v.986c-.319.1-.627.227-.924.38l-.695-.696a.747.747 0 0 0-1.039 0l-1.326 1.324c-.28.28-.28.758.002 1.039l.695.697a5.621 5.621 0 0 0-.383.92h-.984a.745.745 0 0 0-.734.734v1.875c0 .398.336.735.734.735h.986c.1.318.225.626.38.922l-.696.695c-.281.28-.28.758.002 1.039l1.324 1.326c.281.281.758.28 1.04 0l.694-.695c.297.155.605.282.924.383v.984c0 .397.337.734.735.734h1.873c.4 0 .734-.335.734-.734v-.986c.32-.1.627-.227.924-.381l.695.695a.744.744 0 0 0 1.04 0l1.324-1.324a.5.5 0 0 0 .002 0 .746.746 0 0 0-.002-1.04l-.696-.694a5.62 5.62 0 0 0 .383-.922h.984c.4 0 .735-.336.735-.735v-1.875a.744.744 0 0 0-.735-.734h-.986a5.621 5.621 0 0 0-.38-.922l.695-.695a.5.5 0 0 0 .002 0 .746.746 0 0 0-.002-1.04l-1.325-1.323a.744.744 0 0 0-1.039 0l-.697.695a5.63 5.63 0 0 0-.922-.383v-.984a.745.745 0 0 0-.734-.735H14.47zm.265 1h1.342v1.047a.5.5 0 0 0 .387.487c.493.115.964.31 1.394.578a.5.5 0 0 0 .618-.07l.74-.74.949.949-.738.738a.5.5 0 0 0-.07.617c.266.431.459.901.574 1.395a.5.5 0 0 0 .488.386h1.047v1.344H20.42a.5.5 0 0 0-.486.385c-.116.493-.311.964-.579 1.395a.5.5 0 0 0 .07.617l.741.74-.95.95-.737-.74a.5.5 0 0 0-.618-.07 4.655 4.655 0 0 1-1.396.577.5.5 0 0 0-.387.486v1.047h-1.342v-1.047a.5.5 0 0 0-.386-.486 4.653 4.653 0 0 1-1.395-.578.5.5 0 0 0-.617.07l-.74.74-.952-.949.739-.738a.5.5 0 0 0 .072-.617c-.267-.431-.462-.901-.576-1.395a.5.5 0 0 0-.486-.387H9.348v-1.343h1.045a.5.5 0 0 0 .488-.385c.115-.493.31-.964.578-1.395a.5.5 0 0 0-.072-.617l-.74-.74.95-.95.739.739a.5.5 0 0 0 .617.07 4.655 4.655 0 0 1 1.397-.576.5.5 0 0 0 .386-.487v-1.046zm.67 2.28a3.787 3.787 0 0 0-3.779 3.779 3.787 3.787 0 0 0 3.78 3.78 3.787 3.787 0 0 0 3.779-3.78 3.787 3.787 0 0 0-3.78-3.78zm0 1a2.772 2.772 0 0 1 2.78 2.779c0 1.54-1.239 2.78-2.78 2.78a2.772 2.772 0 0 1-2.779-2.78c0-1.54 1.238-2.78 2.78-2.78z" color="#000" font-family="sans-serif" font-weight="400" overflow="visible" transform="translate(0 -1020.362)"/></svg>